<svg width="1024" height="1024" viewBox="0 0 1024 1024" fill="none" xmlns="http://www.w3.org/2000/svg">
<path d="M872 474H286.9L637.1 170C642.7 165.1 639.3 156 631.9 156H543.4C539.5 156 535.8 157.4 532.9 159.9L155 487.8C151.539 490.8 148.763 494.509 146.861 498.676C144.958 502.843 143.974 507.37 143.974 511.95C143.974 516.53 144.958 521.057 146.861 525.224C148.763 529.391 151.539 533.1 155 536.1L535.1 866C536.6 867.3 538.4 868 540.3 868H631.8C639.2 868 642.6 858.8 637 854L286.9 550H872C876.4 550 880 546.4 880 542V482C880 477.6 876.4 474 872 474Z" fill="black"/>
</svg>
